<svg xmlns="http://www.w3.org/2000/svg">
	<rect x="218" y="273" width="259" height="152" stroke="rgba(0,0,0,1)" fill="rgba(255,255,255,1)"/>
	<ellipse cx="343" cy="277" rx="77" ry="60" stroke="rgba(0,0,0,1)" fill="rgba(255,255,255,1)"/>
	<line x1="218" y1="272" x2="309" y2="91" stroke="rgba(0,0,0,1)" />
	<line x1="309" y1="91" x2="476" y2="273" stroke="rgba(0,0,0,1)" />
	<ellipse cx="294" cy="257" rx="9" ry="6" stroke="rgba(0,0,0,1)" fill="rgba(255,255,255,1)"/>
	<ellipse cx="371" cy="261" rx="7" ry="6" stroke="rgba(0,0,0,1)" fill="rgba(255,255,255,1)"/>
	<rect x="305" y="298" width="80" height="9" stroke="rgba(0,0,0,1)" fill="rgba(255,255,255,1)"/>
	<line x1="341" y1="280" x2="341" y2="280" stroke="rgba(0,0,0,1)" />
	<line x1="284" y1="423" x2="116" y2="626" stroke="rgba(0,0,0,1)" />
	<line x1="444" y1="420" x2="550" y2="573" stroke="rgba(0,0,0,1)" />
	<line x1="485" y1="337" x2="485" y2="337" stroke="rgba(0,0,0,1)" />
	<line x1="480" y1="340" x2="578" y2="306" stroke="rgba(0,0,0,1)" />
	<ellipse cx="569" cy="293" rx="-2" ry="-8" stroke="rgba(0,0,0,1)" fill="rgba(255,255,255,1)"/>
	<ellipse cx="573" cy="290" rx="7" ry="5" stroke="rgba(0,0,0,1)" fill="rgba(255,255,255,1)"/>
	<ellipse cx="592" cy="296" rx="3" ry="8" stroke="rgba(0,0,0,1)" fill="rgba(255,255,255,1)"/>
	<ellipse cx="599" cy="316" rx="7" ry="8" stroke="rgba(0,0,0,1)" fill="rgba(255,255,255,1)"/>
	<ellipse cx="585" cy="318" rx="3" ry="6" stroke="rgba(0,0,0,1)" fill="rgba(255,255,255,1)"/>
	<line x1="223" y1="335" x2="52" y2="246" stroke="rgba(0,0,0,1)" />
	<ellipse cx="42" cy="250" rx="10" ry="5" stroke="rgba(0,0,0,1)" fill="rgba(255,255,255,1)"/>
	<ellipse cx="44" cy="233" rx="7" ry="6" stroke="rgba(0,0,0,1)" fill="rgba(255,255,255,1)"/>
	<ellipse cx="58" cy="226" rx="6" ry="5" stroke="rgba(0,0,0,1)" fill="rgba(255,255,255,1)"/>
	<ellipse cx="72" cy="234" rx="1" ry="5" stroke="rgba(0,0,0,1)" fill="rgba(255,255,255,1)"/>
</svg>