<svg xmlns="http://www.w3.org/2000/svg">
	<ellipse cx="302" cy="107" rx="98" ry="17" stroke="rgba(0,0,0,1)" fill="rgba(255,255,255,1)"/>
	<line x1="203" y1="110" x2="204" y2="324" stroke="rgba(0,0,0,1)" />
	<line x1="399" y1="112" x2="398" y2="324" stroke="rgba(0,0,0,1)" />
	<ellipse cx="300" cy="320" rx="97" ry="17" stroke="rgba(0,0,0,1)" fill="rgba(255,255,255,1)"/>
	<ellipse cx="3" cy="773" rx="45" ry="56" stroke="rgba(0,0,0,1)" fill="rgba(255,255,255,1)"/>
	<ellipse cx="114" cy="790" rx="88" ry="8" stroke="rgba(0,0,0,1)" fill="rgba(222,221,218,1)"/>
	<ellipse cx="823" cy="713" rx="96" ry="11" stroke="rgba(0,0,0,1)" fill="rgba(192,191,188,1)"/>
	<ellipse cx="760" cy="684" rx="96" ry="5" stroke="rgba(0,0,0,1)" fill="rgba(154,153,150,1)"/>
	<ellipse cx="302" cy="112" rx="94" ry="9" stroke="rgba(0,0,0,1)" fill="rgba(154,153,150,1)"/>
	<rect x="498" y="649" width="132" height="111" stroke="rgba(0,0,0,1)" fill="rgba(154,153,150,1)"/>
	<ellipse cx="225" cy="72" rx="4" ry="4" stroke="rgba(0,0,0,1)" fill="rgba(255,255,255,1)"/>
	<ellipse cx="251" cy="69" rx="5" ry="5" stroke="rgba(0,0,0,1)" fill="rgba(255,255,255,1)"/>
	<ellipse cx="281" cy="64" rx="4" ry="4" stroke="rgba(0,0,0,1)" fill="rgba(255,255,255,1)"/>
	<ellipse cx="269" cy="82" rx="3" ry="4" stroke="rgba(0,0,0,1)" fill="rgba(255,255,255,1)"/>
	<ellipse cx="295" cy="83" rx="5" ry="3" stroke="rgba(0,0,0,1)" fill="rgba(255,255,255,1)"/>
	<ellipse cx="331" cy="81" rx="3" ry="5" stroke="rgba(0,0,0,1)" fill="rgba(255,255,255,1)"/>
	<ellipse cx="308" cy="68" rx="2" ry="4" stroke="rgba(0,0,0,1)" fill="rgba(255,255,255,1)"/>
	<ellipse cx="356" cy="81" rx="3" ry="4" stroke="rgba(0,0,0,1)" fill="rgba(255,255,255,1)"/>
	<ellipse cx="339" cy="65" rx="2" ry="4" stroke="rgba(0,0,0,1)" fill="rgba(255,255,255,1)"/>
	<ellipse cx="305" cy="391" rx="141" ry="45" stroke="rgba(0,0,0,1)" fill="rgba(255,255,255,1)"/>
	<line x1="249" y1="379" x2="219" y2="347" stroke="rgba(224,27,36,1)" />
	<line x1="219" y1="347" x2="239" y2="342" stroke="rgba(224,27,36,1)" />
	<line x1="239" y1="342" x2="246" y2="353" stroke="rgba(224,27,36,1)" />
	<line x1="246" y1="353" x2="256" y2="344" stroke="rgba(224,27,36,1)" />
	<line x1="256" y1="344" x2="269" y2="364" stroke="rgba(224,27,36,1)" />
	<line x1="269" y1="364" x2="259" y2="379" stroke="rgba(224,27,36,1)" />
	<line x1="274" y1="383" x2="287" y2="362" stroke="rgba(224,27,36,1)" />
	<line x1="287" y1="362" x2="268" y2="347" stroke="rgba(224,27,36,1)" />
	<line x1="268" y1="347" x2="278" y2="341" stroke="rgba(224,27,36,1)" />
	<line x1="278" y1="341" x2="292" y2="352" stroke="rgba(224,27,36,1)" />
	<line x1="292" y1="352" x2="307" y2="342" stroke="rgba(224,27,36,1)" />
	<line x1="307" y1="342" x2="316" y2="358" stroke="rgba(224,27,36,1)" />
	<line x1="316" y1="358" x2="300" y2="369" stroke="rgba(224,27,36,1)" />
	<line x1="300" y1="369" x2="299" y2="380" stroke="rgba(224,27,36,1)" />
	<line x1="335" y1="384" x2="319" y2="369" stroke="rgba(224,27,36,1)" />
	<line x1="319" y1="369" x2="331" y2="359" stroke="rgba(224,27,36,1)" />
	<line x1="331" y1="359" x2="315" y2="348" stroke="rgba(224,27,36,1)" />
	<line x1="316" y1="348" x2="333" y2="344" stroke="rgba(224,27,36,1)" />
	<line x1="334" y1="344" x2="344" y2="357" stroke="rgba(224,27,36,1)" />
	<line x1="344" y1="357" x2="357" y2="352" stroke="rgba(224,27,36,1)" />
	<line x1="357" y1="352" x2="353" y2="378" stroke="rgba(224,27,36,1)" />
	<line x1="371" y1="380" x2="357" y2="359" stroke="rgba(224,27,36,1)" />
	<line x1="357" y1="359" x2="366" y2="358" stroke="rgba(224,27,36,1)" />
	<line x1="366" y1="358" x2="362" y2="346" stroke="rgba(224,27,36,1)" />
	<line x1="362" y1="346" x2="376" y2="343" stroke="rgba(224,27,36,1)" />
	<line x1="376" y1="343" x2="381" y2="363" stroke="rgba(224,27,36,1)" />
	<line x1="382" y1="363" x2="395" y2="363" stroke="rgba(224,27,36,1)" />
	<line x1="395" y1="363" x2="382" y2="379" stroke="rgba(224,27,36,1)" />
	<line x1="215" y1="355" x2="240" y2="378" stroke="rgba(0,0,0,1)" />
	<line x1="228" y1="428" x2="243" y2="397" stroke="rgba(0,0,0,1)" />
	<line x1="383" y1="394" x2="419" y2="418" stroke="rgba(0,0,0,1)" />
	<line x1="389" y1="378" x2="409" y2="361" stroke="rgba(0,0,0,1)" />
	<ellipse cx="312" cy="390" rx="72" ry="10" stroke="rgba(0,0,0,1)" fill="rgba(255,255,255,1)"/>
	<ellipse cx="183" cy="537" rx="0" ry="0" stroke="rgba(0,0,0,1)" fill="rgba(255,255,255,1)"/>
	<line x1="211" y1="425" x2="139" y2="560" stroke="rgba(0,0,0,1)" />
	<line x1="400" y1="425" x2="473" y2="563" stroke="rgba(0,0,0,1)" />
	<line x1="307" y1="440" x2="306" y2="485" stroke="rgba(0,0,0,1)" />
	<rect x="207" y="293" width="188" height="24" stroke="rgba(255,255,255,1)" fill="rgba(255,255,255,1)"/>
	<rect x="105" y="221" width="27" height="35" stroke="rgba(255,255,255,1)" fill="rgba(255,255,255,1)"/>
	<rect x="206" y="312" width="1" height="6" stroke="rgba(255,255,255,1)" fill="rgba(255,255,255,1)"/>
	<rect x="391" y="315" width="4" height="5" stroke="rgba(255,255,255,1)" fill="rgba(255,255,255,1)"/>
	<rect x="386" y="311" width="11" height="12" stroke="rgba(255,255,255,1)" fill="rgba(255,255,255,1)"/>
	<rect x="562" y="253" width="0" height="0" stroke="rgba(255,255,255,1)" fill="rgba(255,255,255,1)"/>
	<rect x="228" y="351" width="15" height="4" stroke="rgba(255,255,255,1)" fill="rgba(255,255,255,1)"/>
	<rect x="273" y="346" width="9" height="4" stroke="rgba(255,255,255,1)" fill="rgba(255,255,255,1)"/>
	<rect x="302" y="347" width="1" height="3" stroke="rgba(255,255,255,1)" fill="rgba(255,255,255,1)"/>
	<ellipse cx="305" cy="348" rx="2" ry="2" stroke="rgba(255,255,255,1)" fill="rgba(255,255,255,1)"/>
	<ellipse cx="331" cy="349" rx="2" ry="2" stroke="rgba(255,255,255,1)" fill="rgba(255,255,255,1)"/>
	<ellipse cx="371" cy="352" rx="5" ry="4" stroke="rgba(255,255,255,1)" fill="rgba(255,255,255,1)"/>
	<line x1="255" y1="350" x2="258" y2="355" stroke="rgba(255,255,255,1)" />
	<line x1="258" y1="348" x2="254" y2="350" stroke="rgba(255,255,255,1)" />
	<ellipse cx="253" cy="349" rx="0" ry="0" stroke="rgba(255,255,255,1)" fill="rgba(255,255,255,1)"/>
	<ellipse cx="257" cy="350" rx="0" ry="0" stroke="rgba(255,255,255,1)" fill="rgba(255,255,255,1)"/>
	<rect x="657" y="602" width="60" height="275" stroke="rgba(38,162,105,1)" fill="rgba(38,162,105,1)"/>
	<rect x="656" y="716" width="84" height="49" stroke="rgba(38,162,105,1)" fill="rgba(35,145,67,1)"/>
	<rect x="668" y="672" width="1" height="18" stroke="rgba(38,162,105,1)" fill="rgba(35,145,67,1)"/>
	<line x1="568" y1="29" x2="584" y2="53" stroke="rgba(192,191,188,1)" />
	<line x1="584" y1="53" x2="618" y2="5" stroke="rgba(192,191,188,1)" />
	<line x1="660" y1="46" x2="670" y2="71" stroke="rgba(192,191,188,1)" />
	<line x1="670" y1="71" x2="747" y2="20" stroke="rgba(192,191,188,1)" />
	<line x1="593" y1="104" x2="606" y2="123" stroke="rgba(192,191,188,1)" />
	<line x1="606" y1="123" x2="646" y2="61" stroke="rgba(192,191,188,1)" />
	<rect x="765" y="558" width="13" height="57" stroke="rgba(134,94,60,1)" fill="rgba(192,191,188,1)"/>
	<rect x="490" y="99" width="10" height="69" stroke="rgba(134,94,60,1)" fill="rgba(134,94,60,1)"/>
	<ellipse cx="478" cy="95" rx="15" ry="9" stroke="rgba(18,161,45,1)" fill="rgba(35,145,67,1)"/>
	<ellipse cx="509" cy="91" rx="14" ry="9" stroke="rgba(18,161,45,1)" fill="rgba(35,145,67,1)"/>
	<ellipse cx="494" cy="82" rx="11" ry="16" stroke="rgba(18,161,45,1)" fill="rgba(35,145,67,1)"/>
	<ellipse cx="480" cy="80" rx="10" ry="9" stroke="rgba(18,161,45,1)" fill="rgba(35,145,67,1)"/>
	<ellipse cx="510" cy="77" rx="6" ry="13" stroke="rgba(18,161,45,1)" fill="rgba(35,145,67,1)"/>
	<ellipse cx="582" cy="223" rx="0" ry="0" stroke="rgba(18,161,45,1)" fill="rgba(35,145,67,1)"/>
	<rect x="444" y="103" width="8" height="62" stroke="rgba(134,94,60,1)" fill="rgba(134,94,60,1)"/>
	<ellipse cx="435" cy="93" rx="15" ry="9" stroke="rgba(18,161,45,1)" fill="rgba(35,145,67,1)"/>
	<ellipse cx="448" cy="84" rx="8" ry="12" stroke="rgba(18,161,45,1)" fill="rgba(35,145,67,1)"/>
	<ellipse cx="448" cy="99" rx="11" ry="12" stroke="rgba(18,161,45,1)" fill="rgba(35,145,67,1)"/>
	<ellipse cx="457" cy="82" rx="8" ry="7" stroke="rgba(18,161,45,1)" fill="rgba(35,145,67,1)"/>
	<ellipse cx="435" cy="77" rx="17" ry="6" stroke="rgba(18,161,45,1)" fill="rgba(35,145,67,1)"/>
	<ellipse cx="282" cy="647" rx="0" ry="0" stroke="rgba(18,161,45,1)" fill="rgba(35,145,67,1)"/>
	<ellipse cx="498" cy="98" rx="0" ry="0" stroke="rgba(18,161,45,1)" fill="rgba(35,145,67,1)"/>
	<ellipse cx="497" cy="93" rx="0" ry="0" stroke="rgba(18,161,45,1)" fill="rgba(35,145,67,1)"/>
	<ellipse cx="698" cy="658" rx="0" ry="0" stroke="rgba(18,161,45,1)" fill="rgba(35,145,67,1)"/>
	<rect x="705" y="561" width="148" height="215" stroke="rgba(255,255,255,1)" fill="rgba(255,255,255,1)"/>
	<rect x="750" y="693" width="395" height="164" stroke="rgba(255,255,255,1)" fill="rgba(255,255,255,1)"/>
	<rect x="-23" y="702" width="118" height="43" stroke="rgba(255,255,255,1)" fill="rgba(255,255,255,1)"/>
	<rect x="514" y="529" width="426" height="264" stroke="rgba(255,255,255,1)" fill="rgba(255,255,255,1)"/>
	<rect x="405" y="650" width="318" height="128" stroke="rgba(255,255,255,1)" fill="rgba(255,255,255,1)"/>
	<rect x="307" y="628" width="336" height="62" stroke="rgba(255,255,255,1)" fill="rgba(255,255,255,1)"/>
	<rect x="8" y="672" width="850" height="249" stroke="rgba(255,255,255,1)" fill="rgba(255,255,255,1)"/>
	<rect x="-152" y="734" width="310" height="134" stroke="rgba(255,255,255,1)" fill="rgba(255,255,255,1)"/>
</svg>